<svg xmlns="http://www.w3.org/2000/svg" viewBox="0 0 64 64" role="img" aria-label="Grey Chair Tea">
  <defs>
    <linearGradient id="cup" x1="0" x2="1" y1="0" y2="1">
      <stop offset="0" stop-color="#5B7B5C"/>
      <stop offset="1" stop-color="#3f5a41"/>
    </linearGradient>
  </defs>
  <rect width="64" height="64" rx="14" fill="#FDFCF8"/>
  <path d="M18 24c0-2 2-4 4-4h20c2 0 4 2 4 4v8c0 9-7 16-16 16S18 41 18 32v-8z" fill="url(#cup)"/>
  <path d="M44 26h4c3 0 6 3 6 6s-3 6-6 6h-4" fill="none" stroke="#3f5a41" stroke-width="4" stroke-linecap="round"/>
  <path d="M24 16c2-3 6-3 8 0M32 16c2-3 6-3 8 0" fill="none" stroke="#5B7B5C" stroke-width="3" stroke-linecap="round"/>
</svg>

